<?xml version="1.0" encoding="UTF-8"?>
<!DOCTYPE svg PUBLIC "-//W3C//DTD SVG 1.1//EN" "http://www.w3.org/Graphics/SVG/1.1/DTD/svg11.dtd">
<svg xmlns="http://www.w3.org/2000/svg" version="1.1" width="611px" height="300px" style="shape-rendering:geometricPrecision; text-rendering:geometricPrecision; image-rendering:optimizeQuality; fill-rule:evenodd; clip-rule:evenodd" xmlns:xlink="http://www.w3.org/1999/xlink">
<g><path style="opacity:0.968" fill="#680176" d="M -0.5,134.5 C -0.5,133.833 -0.5,133.167 -0.5,132.5C 2.01229,128.327 4.34562,123.994 6.5,119.5C 17.5677,126.433 29.5677,128.933 42.5,127C 48.3593,125.781 50.526,122.281 49,116.5C 48.1667,115 47,113.833 45.5,113C 36.1717,110.334 26.8384,107.667 17.5,105C 1.05669,97.677 -3.10998,85.8437 5,69.5C 15.8665,58.4845 29.0331,54.3179 44.5,57C 51.9097,57.8589 58.9097,60.0256 65.5,63.5C 66.5827,64.365 66.7494,65.365 66,66.5C 64.2926,71.1617 62.1259,75.495 59.5,79.5C 48.3261,73.0736 36.6594,71.9069 24.5,76C 19.5837,82.8557 21.2503,87.5223 29.5,90C 37.2097,91.8441 44.8764,93.8441 52.5,96C 69.7983,102.889 74.2983,114.722 66,131.5C 57.5275,141.065 46.8608,145.398 34,144.5C 21.4233,144.65 9.92327,141.317 -0.5,134.5 Z"/></g>
<g><path style="opacity:0.993" fill="#680276" d="M 82.5,58.5 C 89.1667,58.5 95.8333,58.5 102.5,58.5C 102.5,86.5 102.5,114.5 102.5,142.5C 95.8333,142.5 89.1667,142.5 82.5,142.5C 82.5,114.5 82.5,86.5 82.5,58.5 Z"/></g>
<g><path style="opacity:0.978" fill="#680176" d="M 148.5,58.5 C 155.422,58.1878 162.256,58.5212 169,59.5C 181.264,86.7916 193.43,114.125 205.5,141.5C 198.524,142.664 191.524,142.831 184.5,142C 182.268,136.476 179.935,130.976 177.5,125.5C 164.846,124.334 152.18,124.167 139.5,125C 136.833,130.667 134.167,136.333 131.5,142C 124.842,142.5 118.175,142.666 111.5,142.5C 123.28,114.271 135.614,86.2715 148.5,58.5 Z M 157.5,79.5 C 162.384,88.7795 166.718,98.4462 170.5,108.5C 162.187,109.665 153.853,109.832 145.5,109C 149.795,99.28 153.795,89.4467 157.5,79.5 Z"/></g>
<g><path style="opacity:0.977" fill="#680176" d="M 213.5,58.5 C 229.503,58.3334 245.503,58.5001 261.5,59C 282.898,64.414 291.065,77.914 286,99.5C 283.229,107.27 278.063,112.77 270.5,116C 276.623,124.412 282.623,132.912 288.5,141.5C 281.189,142.665 273.856,142.831 266.5,142C 261.747,134.493 256.747,127.16 251.5,120C 245.843,119.501 240.176,119.334 234.5,119.5C 234.5,127.167 234.5,134.833 234.5,142.5C 227.5,142.5 220.5,142.5 213.5,142.5C 213.5,114.5 213.5,86.5 213.5,58.5 Z M 234.5,74.5 C 242.561,74.1785 250.561,74.6785 258.5,76C 266.042,79.9845 268.542,86.1512 266,94.5C 263.339,100.145 258.839,102.979 252.5,103C 246.509,103.499 240.509,103.666 234.5,103.5C 234.5,93.8333 234.5,84.1667 234.5,74.5 Z"/></g>
<g><path style="opacity:0.963" fill="#fefffe" d="M 304.5,72.5 C 314.595,71.8745 324.428,72.5411 334,74.5C 335.156,109.334 336.322,144.167 337.5,179C 338.587,249.604 304.92,276.937 236.5,261C 211.027,250.233 200.527,231.066 205,203.5C 206.631,191.976 209.964,180.976 215,170.5C 223.078,173.303 231.078,176.303 239,179.5C 237.778,186.521 236.112,193.521 234,200.5C 230.291,219.267 237.457,231.434 255.5,237C 269.723,240.369 283.057,238.369 295.5,231C 303.542,222.891 307.709,213.058 308,201.5C 308.094,158.462 306.927,115.462 304.5,72.5 Z"/></g>
<g><path style="opacity:0.965" fill="#fefffe" d="M 431.5,72.5 C 441.167,72.5 450.833,72.5 460.5,72.5C 461.862,108.863 463.696,145.196 466,181.5C 466.765,184.196 467.932,186.696 469.5,189C 474.955,191.059 480.622,192.226 486.5,192.5C 506.411,192.126 525.744,188.626 544.5,182C 550.943,179.613 556.943,176.446 562.5,172.5C 552.754,166.307 542.088,162.807 530.5,162C 519.429,161.17 508.429,161.67 497.5,163.5C 496.332,154.17 495.499,144.836 495,135.5C 514.178,130.653 533.012,131.82 551.5,139C 561.68,144.256 572.014,149.256 582.5,154C 588.945,155.704 595.445,156.87 602,157.5C 602.967,166.077 604.134,174.577 605.5,183C 598.96,183.922 592.627,185.589 586.5,188C 571.271,196.782 555.604,204.782 539.5,212C 515.786,220.039 491.453,222.705 466.5,220C 450.959,219.165 441.126,211.332 437,196.5C 426.025,211.242 411.191,219.075 392.5,220C 388,220.167 383.5,220.333 379,220.5C 371.87,220.646 364.87,219.98 358,218.5C 358.033,208.273 359.366,198.273 362,188.5C 377.392,191.213 392.559,190.047 407.5,185C 409.332,184.252 410.999,183.252 412.5,182C 395.886,159.374 377.052,138.541 356,119.5C 360.22,112.25 365.72,105.75 372.5,100C 373.167,99.3333 373.833,99.3333 374.5,100C 388,113.5 401.5,127 415,140.5C 420.333,147.167 425.667,153.833 431,160.5C 433.242,154.383 434.409,148.05 434.5,141.5C 433.474,118.497 432.474,95.4973 431.5,72.5 Z"/></g>
</svg>
